<svg 
    t="1741761208961" 
    class="icon" 
    viewBox="0 0 1126 1024" 
    version="1.1" 
    xmlns="http://www.w3.org/2000/svg" 
    p-id="34930" 
    width="13" 
    height="13"
>

    <path 
        d="M896.808645 319.254973h-0.76764a60.387708 60.387708 0 0 1-60.387709-60.387708V111.582668c0-33.366768 27.020941-60.387708 60.387709-60.387709h0.76764c33.366768 0 60.387708 27.020941 60.387709 60.387709v147.284597a60.387708 60.387708 0 0 1-60.387709 60.387708z" 
        fill="#F77F53" 
        p-id="34931"
    ></path>

    <path 
    d="M943.020595 285.325269h-106.599658L562.936264 102.370983 284.84575 285.325269H182.851934c-41.96434 0-75.94522 35.669689-75.94522 79.629894v579.005535c0 43.909029 33.98088 79.578717 75.94522 79.578718h760.219837c41.96434 0 75.94522-35.669689 75.94522-79.629894V364.903986c-0.051176-43.960205-34.032056-79.578717-75.996396-79.578717z" 
    fill="#5B8CFF" 
    p-id="34932"
    ></path>

    <path 
    d="M744.662326 701.488697a181.214301 181.214301 0 0 0-181.572534-177.069044 181.163125 181.163125 0 0 0-181.521357 177.069044c0 1.074697-0.358232 2.098217-0.358232 3.275265v167.192071h-0.307056v0.153528h364.015059v-167.345599c0.051176-1.125873-0.25588-2.200569-0.25588-3.275265z" 
    fill="#FFFFFF" 
    p-id="34933"
    ></path>

    <path 
    d="M1094.70633 320.176141L611.195255 18.442304A68.422344 68.422344 0 0 0 562.936264 0.018935a68.21764 68.21764 0 0 0-48.25899 18.423369L31.166199 320.176141a64.993551 64.993551 0 0 0-20.521586 90.990971 68.575872 68.575872 0 0 0 93.293892 20.009826L562.936264 144.744731l458.99776 286.381031c31.422079 19.600417 73.181714 10.644613 93.293892-20.009826s10.900493-71.339378-20.521586-90.939795z" 
    fill="#B6D2FF" 
    p-id="34934"></path>

</svg>