<svg t="1741783830482" class="icon" viewBox="0 0 1024 1024" version="1.1" xmlns="http://www.w3.org/2000/svg" p-id="17301" width="14" height="14"><path d="M0 0m215.578947 0l592.842106 0q215.578947 0 215.578947 215.578947l0 592.842106q0 215.578947-215.578947 215.578947l-592.842106 0q-215.578947 0-215.578947-215.578947l0-592.842106q0-215.578947 215.578947-215.578947Z" fill="#DB4437" p-id="17302"></path><path d="M269.743158 269.473684h478.800842v483.543579H269.743158z" fill="#E67C73" p-id="17303"></path><path d="M274.970947 269.473684h-10.940631C237.352421 269.473684 215.578947 293.349053 215.578947 322.829474v376.832c0 29.480421 21.665684 53.355789 48.451369 53.355789h25.653895V403.563789l219.459368 186.206316 219.459368-186.206316v349.453474h25.70779c26.731789 0 48.397474-23.875368 48.397474-53.355789V322.829474c0-29.480421-21.719579-53.355789-48.397474-53.35579h-10.994526L509.143579 482.950737 274.970947 269.473684z" fill="#FFFFFF" p-id="17304"></path></svg>