<svg t="1741768452456" class="icon" viewBox="0 0 1024 1024" version="1.1" xmlns="http://www.w3.org/2000/svg" p-id="23843" width="14" height="14"><path d="M735.616 85.333333H288.426667c-34.346667 0-62.72 0-85.76 1.877334-24.021333 1.962667-46.08 6.186667-66.773334 16.725333a170.666667 170.666667 0 0 0-74.581333 74.581333c-10.538667 20.693333-14.762667 42.752-16.725333 66.730667C42.666667 268.373333 42.666667 296.704 42.666667 331.008v361.941333c0 34.346667 0 62.72 1.877333 85.76 1.962667 24.021333 6.186667 46.08 16.725333 66.773334a170.666667 170.666667 0 0 0 74.581334 74.581333c20.693333 10.538667 42.752 14.762667 66.730666 16.725333C225.706667 938.666667 254.037333 938.666667 288.341333 938.666667h447.274667c34.346667 0 62.72 0 85.76-1.877334 24.021333-1.962667 46.08-6.186667 66.773333-16.725333a170.666667 170.666667 0 0 0 74.581334-74.581333c10.538667-20.693333 14.762667-42.752 16.725333-66.730667 1.877333-23.082667 1.877333-51.456 1.877333-85.76V331.008c0-34.346667 0-62.72-1.877333-85.76-1.962667-24.021333-6.186667-46.08-16.725333-66.773333a170.666667 170.666667 0 0 0-74.581334-74.581334c-20.693333-10.538667-42.752-14.762667-66.730666-16.725333C798.293333 85.333333 769.962667 85.333333 735.658667 85.333333z" fill="#3D73BF" p-id="23844"></path><path d="M900.394667 356.138667l-345.386667 200.832a85.333333 85.333333 0 0 1-86.101333-0.170667L126.933333 356.053333l43.178667-73.557333 341.973333 200.704 345.386667-200.832 42.922667 73.813333z" fill="#A1CAFF" p-id="23845"></path></svg>