<svg t="1741943721210" class="icon" viewBox="0 0 1024 1024" version="1.1" xmlns="http://www.w3.org/2000/svg" p-id="3553" width="14" height="14"><path d="M431.542857 358.4h336.457143c7.314286 0 14.628571 0 14.628571-7.314286l138.971429-138.971428c7.314286-7.314286 7.314286-7.314286 7.314286-14.628572V95.085714c0-7.314286 0-14.628571-7.314286-14.628571 0-7.314286-7.314286-7.314286-14.628571-7.314286H804.571429c-7.314286 0-14.628571 0-14.628572 7.314286l-73.142857 95.085714c-7.314286 7.314286-14.628571 7.314286-14.628571 7.314286H387.657143c-7.314286 0-7.314286 0-14.628572 7.314286L95.085714 490.057143V877.714286c0 7.314286 0 14.628571 7.314286 14.628571l51.2 51.2c7.314286 7.314286 7.314286 7.314286 14.628571 7.314286h504.685715c7.314286 0 14.628571 0 14.628571-7.314286l204.8-226.742857c7.314286-7.314286 7.314286-7.314286 7.314286-14.628571V519.314286c0-7.314286 0-14.628571-7.314286-14.628572l-51.2-51.2c-7.314286-7.314286-7.314286-7.314286-14.628571-7.314285H672.914286c-7.314286 0-14.628571 0-14.628572 7.314285L548.571429 585.142857v14.628572c0 7.314286 7.314286 7.314286 7.314285 7.314285h131.657143c7.314286 0 14.628571 0 14.628572 7.314286 7.314286 7.314286 7.314286 7.314286 7.314285 14.628571v80.457143c0 7.314286 0 14.628571-7.314285 14.628572l-51.2 51.2c-7.314286 7.314286-7.314286 7.314286-14.628572 7.314285H387.657143c-7.314286 0-14.628571 0-14.628572-7.314285l-73.142857-95.085715C292.571429 672.914286 292.571429 665.6 292.571429 658.285714V519.314286c0-7.314286 0-7.314286 7.314285-14.628572L416.914286 365.714286c7.314286-7.314286 7.314286-7.314286 14.628571-7.314286z m0 0" fill="#F44336" p-id="3554"></path></svg>