<svg t="1741773319494" class="icon" viewBox="0 0 1024 1024" version="1.1" xmlns="http://www.w3.org/2000/svg" p-id="9146" width="14" height="14"><path d="M870.4 460.8a409.6 409.6 0 0 1-409.6 409.6 409.6 409.6 0 0 1-409.6-409.6 409.6 409.6 0 0 1 409.6-409.6 409.6 409.6 0 0 1 409.6 409.6z m-153.6 0A256 256 0 1 0 204.8 460.8a256 256 0 1 0 512 0z" fill="#666666" p-id="9147"></path><path d="M958.0544 849.408l-190.976-190.976a76.8 76.8 0 0 0-108.6464 108.6464l190.976 190.976a76.8 76.8 0 1 0 108.6464-108.5952z" fill="#666666" p-id="9148"></path></svg>